Coordinates
version=1
nRows=5
nColumns=42
inDegrees=yes

Units are S.I. units (second, meters, Newtons, ...)
If the header above contains a line with 'inDegrees', this indicates whether rotational values are in degrees (yes) or radians (no).

endheader
time	pelvis_tilt	pelvis_list	pelvis_rotation	pelvis_tx	pelvis_ty	pelvis_tz	hip_flexion_r	hip_adduction_r	hip_rotation_r	knee_angle_r	knee_adduction_r	knee_angle_r_beta	ankle_angle_r	subtalar_angle_r	mtp_angle_r	hip_flexion_l	hip_adduction_l	hip_rotation_l	knee_angle_l	knee_adduction_l	knee_angle_l_beta	ankle_angle_l	subtalar_angle_l	mtp_angle_l	lumbar_extension	lumbar_bending	lumbar_rotation	arm_flex_r	arm_add_r	arm_rot_r	elbow_flex_r	pro_sup_r	wrist_flex_r	wrist_dev_r	arm_flex_l	arm_add_l	arm_rot_l	elbow_flex_l	pro_sup_l	wrist_flex_l	wrist_dev_l
      0.00000000	     10.10976998	     -0.34051822	     -6.83484394	     -1.03950887	      0.84719906	     -0.33931711	     11.91083673	     -4.11221140	    -14.85328074	     52.58818902	     -8.42384397	      0.91783705	     10.87866991	     -3.04127903	     -9.52014302	    -11.91358072	      2.03545795	     -7.29042880	      8.33754400	      6.19714518	      0.14551759	     15.23128644	     -6.61444336	     -9.52014302	    -21.35387052	     -2.21348030	      5.34433363	      1.02261759	    -14.69164447	     -7.77046269	     34.86597572	     90.00000001	      0.00000000	      0.00000000	      1.35769012	     -7.68565692	    -31.70731578	     29.42435023	     90.00000001	      0.00000000	      0.00000000
      0.01000000	     10.08032867	     -0.76228018	     -6.34678826	     -1.02506756	      0.84728037	     -0.34015885	     12.77248181	     -3.35590403	    -15.21692273	     49.33557507	     -7.50948185	      0.86106822	     11.12509915	     -3.06046578	     -9.40656877	    -13.67071530	      1.66615435	     -7.52810560	      7.14601691	      6.23429445	      0.12472152	     15.84135452	     -5.29931586	     -9.40656877	    -21.29068246	     -1.41103702	      4.40944241	      1.06799439	    -14.60899403	     -7.89053913	     34.46755042	     90.00000001	      0.00000000	      0.00000000	      1.25057423	     -7.76881004	    -28.52347815	     31.53001853	     90.00000001	      0.00000000	      0.00000000
      0.02000000	      9.38680450	     -0.42873927	     -6.05758132	     -1.01090877	      0.84574404	     -0.34132081	     14.71475527	     -3.59840176	    -15.57309944	     46.49815635	     -6.55240348	      0.81154592	     11.25554267	     -3.04958819	     -9.37755544	    -14.15686918	      2.17334630	     -8.26592610	      6.77831257	      6.05484044	      0.11830387	     16.04998621	     -4.89544943	     -9.37755544	    -20.39626091	     -1.37354037	      3.52260461	      0.79483978	    -14.52668206	     -7.89079534	     34.45128581	     90.00000001	      0.00000000	      0.00000000	      1.84256715	     -7.68711587	    -27.91709389	     32.73561459	     90.00000001	      0.00000000	      0.00000000
      0.03000000	      9.85845458	     -1.21380244	     -5.32987632	     -0.99594915	      0.84557307	     -0.34166447	     14.27511547	     -2.41673420	    -15.76096428	     42.19307356	     -5.22498726	      0.73640806	     11.35650359	     -3.81493182	     -9.25261312	    -16.71391321	      1.21706555	     -8.02309896	      5.26375528	      6.37375971	      0.09186986	     16.92986928	     -2.88361147	     -9.25261312	    -20.90409788	     -0.26969632	      2.37629553	      1.06757927	    -14.40959278	     -8.11582400	     33.87233601	     90.00000001	      0.00000000	      0.00000000	      0.82899762	     -8.48598567	    -22.00245799	     36.51256189	     90.00000001	      0.00000000	      0.00000000
      0.04000000	      9.77268880	     -1.22612221	     -4.83108523	     -0.98125146	      0.84397815	     -0.34246487	     14.78917579	     -2.31848595	    -16.00999696	     38.35206364	     -3.88364223	      0.66936979	     11.41536259	     -4.18415630	     -9.13185317	    -18.11919315	      1.23703839	     -8.38629688	      4.58121895	      6.38870580	      0.07995735	     17.55151936	     -1.62826939	     -9.13185317	    -20.68873198	      0.05555100	      1.34470867	      1.04794881	    -14.32664251	     -8.28464295	     33.54308470	     90.00000001	      0.00000000	      0.00000000	      0.79542292	     -8.87182996	    -19.77946165	     38.95561137	     90.00000001	      0.00000000	      0.00000000
